<?xml version="1.0" encoding="UTF-8"?>
<svg width="110px" height="102px" viewBox="0 0 110 102" version="1.1" xmlns="http://www.w3.org/2000/svg" xmlns:xlink="http://www.w3.org/1999/xlink">
    <!-- Generator: Sketch 55 (78076) - https://sketchapp.com -->
    <title>water</title>
    <desc>Created with Sketch.</desc>
    <g id="Feb-2019" stroke="none" stroke-width="1" fill="none" fill-rule="evenodd">
        <g id="What-to-bring" transform="translate(-361.000000, -150.000000)">
            <g id="drink" transform="translate(361.000000, 150.000000)">
                <rect id="Rectangle" x="0" y="0" width="110" height="102"></rect>
                <g id="water" transform="translate(44.000000, 29.000000)">
                    <path d="M19.954,19.7748506 C18.0656865,21.7580958 17.0297838,24.3333131 17.0297838,27.0744052 C17.0297838,29.8131387 18.0656865,32.388356 19.954,34.3716011 L19.954,38.6743816 L2.4087027,38.6743816 L2.4087027,34.3716011 C4.29701622,32.388356 5.33291892,29.8131387 5.33291892,27.0744052 C5.33291892,24.3333721 4.29701622,21.7581548 2.4087027,19.7748506 L2.4087027,16.4395456 L19.954,16.4395456 L19.954,19.7748506 Z M19.954,55.1068413 C19.954,55.6389263 19.5173416,56.0742578 18.9785081,56.0742578 L3.38407568,56.0742578 C2.84522432,56.0742578 2.40858378,55.6389145 2.40858378,55.1068413 L2.40858378,40.6067971 L19.954,40.6067971 L19.954,55.1068413 Z M2.4087027,11.6067086 C2.4087027,11.0746236 2.84536108,10.6392921 3.38419459,10.6392921 L18.978627,10.6392921 C19.5174784,10.6392921 19.9541189,11.0746354 19.9541189,11.6067086 L19.9541189,14.5067174 L2.4087027,14.5067174 L2.4087027,11.6067086 Z M8.25707568,5.80674988 L13.5712649,5.80674988 C13.8662373,5.80674988 14.1054724,6.04399867 14.1054724,6.33653515 L14.1054724,8.70672334 L8.25707568,8.70672334 L8.25707568,5.80674988 Z M10.2057405,2.38617824 C10.2057405,2.13971287 10.4101324,1.9393186 10.6563303,1.9393186 L11.7061465,1.9393186 C11.9523443,1.9393186 12.1567362,2.13971287 12.1567362,2.38617824 L12.1567362,3.87415757 L10.2057405,3.87415757 L10.2057405,2.38617824 Z M16.054173,8.70687666 L16.054173,6.33668846 C16.054173,5.15964339 15.2180541,4.17836956 14.1055081,3.93424518 L14.1055081,2.38635514 C14.1055081,1.07339059 13.0301243,0.00690909091 11.7062,0.00690909091 L10.6563838,0.00690909091 C9.33245946,0.00690909091 8.25707568,1.07339059 8.25707568,2.38635514 L8.25707568,3.87433447 L7.28158378,3.87433447 C6.7450573,3.87433447 6.30841081,4.30737808 6.30841081,4.83945128 L6.30841081,8.70687666 L3.38419459,8.70687666 C1.76998919,8.70687666 0.459978378,10.0082836 0.459978378,11.6068855 L0.459978378,20.1689287 C0.459978378,20.429216 0.564496216,20.6779811 0.750307027,20.8599658 C2.44817189,22.5138199 3.3841827,24.720492 3.3841827,27.0745232 C3.3841827,29.4286133 2.44817189,31.6352853 0.750307027,33.2867219 C0.564496216,33.4686889 0.459978378,33.7174599 0.459978378,33.9777589 L0.459978378,55.1069002 C0.459978378,56.7054431 1.76992973,58.0069091 3.38419459,58.0069091 L18.978627,58.0069091 C20.5905135,58.0069091 21.9028432,56.7055021 21.9028432,55.1069002 L21.9028432,33.9777589 C21.9028432,33.7174716 21.7983254,33.4687066 21.6125146,33.2867219 C19.9146497,31.6351674 18.9786389,29.4284954 18.9786389,27.0745232 C18.9786389,24.720433 19.9146497,22.513761 21.6125146,20.8599658 C21.7983254,20.6779988 21.9028432,20.4292278 21.9028432,20.1689287 L21.9028432,11.6068855 C21.9028432,10.0083426 20.590573,8.70687666 18.978627,8.70687666 L16.054173,8.70687666 Z" id="bottle" fill="#FFFFFF" fill-rule="nonzero"></path>
                    <path d="M13,49 L5,51" id="Shape" stroke="#FFFFFF" stroke-width="2.2222"></path>
                    <path d="M17,45 L5,48" id="Shape" stroke="#FFFFFF" stroke-width="2.2222"></path>
                </g>
            </g>
        </g>
    </g>
</svg>