<?xml version="1.0" encoding="UTF-8"?>
<svg width="110px" height="102px" viewBox="0 0 110 102" version="1.1" xmlns="http://www.w3.org/2000/svg" xmlns:xlink="http://www.w3.org/1999/xlink">
    <!-- Generator: Sketch 55 (78076) - https://sketchapp.com -->
    <title>money</title>
    <desc>Created with Sketch.</desc>
    <g id="Feb-2019" stroke="none" stroke-width="1" fill="none" fill-rule="evenodd">
        <g id="What-to-bring" transform="translate(0.000000, -299.000000)" fill="#FFFFFF" fill-rule="nonzero">
            <g id="money" transform="translate(0.000000, 299.000000)">
                <g transform="translate(34.000000, 39.000000)" id="Shape">
                    <path d="M38.7484862,15.6641872 L38.7484862,12.4817946 C38.7484862,8.94540978 35.853501,6.02700823 32.2450133,6.02700823 L32.0223221,6.02700823 L30.7766323,0.812166807 C30.6879032,0.546248352 30.5087081,0.282062727 30.2859991,0.149094658 C30.0633079,0.0161354313 29.7066457,-0.027034986 29.4404853,0.0161354313 L5.38983892,6.07175234 L3.25164738,6.07175234 C1.47011803,6.07175234 0,7.5308647 0,9.2990571 L0,32.7726952 C0,34.5408876 1.47011803,36 3.25164738,36 L32.2901305,36 C35.8531893,36 38.7936035,33.1266874 38.7936035,29.5452137 L38.7936035,26.4059649 C40.5751328,26.3610705 42,24.9037086 42,23.0906041 L42,18.9792032 C42,17.1678227 40.5751328,15.7087545 38.7483526,15.6638424 L38.7484862,15.6641872 Z M28.8614437,2.44783318 L29.7522084,6.07227395 L14.4751487,6.07227395 L28.8614437,2.44783318 Z M32.2905314,33.8332482 L3.20840076,33.8332482 C2.62904741,33.8332482 2.18366507,33.3912001 2.18366507,32.8161839 L2.18366507,9.29966712 C2.18366507,8.72465096 2.62904741,8.28260286 3.20840076,8.28260286 L5.4805633,8.28260286 L32.2489327,8.28260286 C34.6098154,8.28260286 36.5253157,10.1837633 36.5253157,12.5269719 L36.5253157,15.7093646 L28.4162395,15.7093646 C25.8326656,15.7093646 23.7397249,17.786637 23.7397249,20.3508696 L23.7397249,21.809982 C23.7397249,24.3742146 25.8326656,26.451487 28.4162395,26.451487 L36.5217527,26.451487 L36.5217527,29.6338797 C36.5217527,31.9321761 34.6079893,33.8333366 32.2906205,33.8333366 L32.2905314,33.8332482 Z M39.7734001,23.0910373 C39.7734001,23.7091974 39.2827669,24.1961576 38.6599442,24.1961576 L28.4161504,24.1961576 C27.0800034,24.1961576 25.9665475,23.0910373 25.9665475,21.7648931 L25.9665475,20.3057807 C25.9665475,18.9796364 27.0800034,17.8745161 28.4161504,17.8745161 L38.6599442,17.8745161 C39.2827669,17.8745161 39.7734001,18.3614763 39.7734001,18.9796364 L39.7734001,23.0910373 Z"></path>
                    <path d="M31.174125,20.7294106 C31.174125,22.7286794 28.174125,22.7286794 28.174125,20.7294106 C28.174125,18.7286794 31.174125,18.7286794 31.174125,20.7294106"></path>
                </g>
            </g>
        </g>
    </g>
</svg>