<?xml version="1.0" encoding="UTF-8"?>
<svg width="110px" height="102px" viewBox="0 0 110 102" version="1.1" xmlns="http://www.w3.org/2000/svg" xmlns:xlink="http://www.w3.org/1999/xlink">
    <!-- Generator: Sketch 55 (78076) - https://sketchapp.com -->
    <title>cycle tool</title>
    <desc>Created with Sketch.</desc>
    <g id="Feb-2019" stroke="none" stroke-width="1" fill="none" fill-rule="evenodd">
        <g id="What-to-bring" transform="translate(-181.000000, -299.000000)" fill="#FFFFFF" fill-rule="nonzero">
            <g id="essential-tools" transform="translate(181.000000, 299.000000)">
                <g id="cycle-tool" transform="translate(31.000000, 38.000000)">
                    <path d="M8.31016863,15.8809584 C5.17565326,15.8809584 2.63502725,18.3433403 2.63502725,21.3809584 C2.63502725,24.4185766 5.1758209,26.8809584 8.31016863,26.8809584 L39.7424946,26.8809584 C42.8770099,26.8809584 45.4176359,24.4185766 45.4176359,21.3809584 C45.4176359,18.3433403 42.8768423,15.8809584 39.7424946,15.8809584 L8.31016863,15.8809584 Z M8.30758188,13.3546852 L39.7255809,13.3546852 C44.3051802,13.3546852 48.0165814,16.9356607 48.0165814,21.3546852 C48.0165814,25.7737097 44.3053477,29.3546852 39.7255809,29.3546852 L8.30758188,29.3546852 C3.72798264,29.3546852 0.0165813953,25.7737097 0.0165813953,21.3546852 C0.0165813953,16.9356607 3.72781508,13.3546852 8.30758188,13.3546852 L8.30758188,13.3546852 Z" id="Shape"></path>
                    <path d="M41.5366047,21.0750864 C41.5366047,23.0750864 38.5366047,23.0750864 38.5366047,21.0750864 C38.5366047,19.0750864 41.5366047,19.0750864 41.5366047,21.0750864" id="Shape"></path>
                    <path d="M9.28488372,21.0750864 C9.28488372,23.0750864 6.28488372,23.0750864 6.28488372,21.0750864 C6.28488372,19.0750864 9.28488372,19.0750864 9.28488372,21.0750864" id="Shape"></path>
                    <path d="M27.3681628,37.5738889 L19.160907,29.4304321 L20.9347953,27.6719444 L30.0256791,36.6945123 C30.5166863,37.1797541 30.5166863,37.967737 30.0256791,38.4550704 L25.2995,43.1457333 C24.8084928,43.6330507 24.0145488,43.6330507 23.5256116,43.1457333 L9.68977442,29.4159926 L11.4636628,27.6554346 L24.411593,40.5081877 L27.3681628,37.5738889 Z" id="Shape"></path>
                    <path d="M18.9236512,6.02 L26.9362093,13.9723457 L25.164407,15.7329037 L16.263407,6.89879259 C15.7723998,6.41355086 15.7723998,5.6255679 16.263407,5.13823457 L20.989586,0.447571605 C21.4805933,-0.0397458025 22.2745372,-0.0397458025 22.7634744,0.447571605 L36.4195907,14.0010654 L34.6477884,15.7616235 L21.8774395,3.08724074 L18.9236512,6.02 Z" id="Shape"></path>
                    <path d="M18.9236512,6.02 L19.8095256,6.89921728 C20.6243674,7.71000617 21.9469744,7.71000617 22.7639023,6.89921728 C23.5808302,6.0884284 23.5808302,4.77576049 22.7639023,3.96704198 L21.8780279,3.08782469 L18.9236512,6.02 Z M22.7639558,0.448049383 L24.5378442,2.20653704 C26.3326465,3.98785185 26.3326465,6.8764963 24.5378442,8.65972222 C22.7409558,10.441037 19.8304395,10.441037 18.0357977,8.65972222 L16.2639953,6.8991642 C15.7729881,6.41392247 15.7729881,5.62593951 16.2639953,5.13860617 L20.9901744,0.44794321 C21.4811816,-0.0393741975 22.2751256,-0.0393741975 22.7640628,0.44794321 L22.7639558,0.448049383 Z" id="Shape"></path>
                    <path d="M20.4427209,35.385284 C19.9517137,34.9000422 19.9517137,34.1120593 20.4427209,33.6267963 C20.9316367,33.1394789 21.725586,33.1394789 22.2145233,33.6267963 L26.3515279,37.7327123 C26.8404437,38.2179541 26.8404437,39.005937 26.3515279,39.4912 C25.8626121,39.976463 25.0686628,39.9764417 24.5797256,39.4912 L20.4427209,35.385284 Z" id="Shape"></path>
                </g>
            </g>
        </g>
    </g>
</svg>