<?xml version="1.0" encoding="UTF-8"?>
<svg width="110px" height="102px" viewBox="0 0 110 102" version="1.1" xmlns="http://www.w3.org/2000/svg" xmlns:xlink="http://www.w3.org/1999/xlink">
    <!-- Generator: Sketch 55 (78076) - https://sketchapp.com -->
    <title>rain jacket</title>
    <desc>Created with Sketch.</desc>
    <g id="Feb-2019" stroke="none" stroke-width="1" fill="none" fill-rule="evenodd">
        <g id="What-to-bring" transform="translate(-184.000000, 0.000000)" fill="#FFFFFF" fill-rule="nonzero">
            <g id="rain-jacket" transform="translate(184.000000, 0.000000)">
                <path d="M90.1462962,80.7770658 C90.4669359,80.607654 90.6515492,80.2624313 90.5770522,79.9012437 C90.5576199,79.8085471 88.5560567,70.4622001 84.0218136,57.612499 C79.5231399,44.8781777 72.8219751,37.1968337 71.4099729,35.9783911 C71.1897404,35.7897984 70.8237557,35.4701557 65.5186158,33.8495124 C65.5024221,33.8463153 65.489467,33.8495124 65.4765119,33.8463153 C65.1364374,32.8650148 64.2878764,32.1233932 63.4911689,31.6535277 C63.4037209,31.260361 63.1705291,30.6626531 62.5778033,30.064888 C61.2143051,28.6935876 58.6912736,28 55.0703131,28 C51.4493526,28 48.9230876,28.6968281 47.5595893,30.064888 C46.989565,30.6402482 46.7563732,31.209193 46.659241,31.6023842 C45.8463075,32.0594761 44.9556351,32.81068 44.596126,33.8111286 C39.1776196,35.4636772 38.789008,35.7961509 38.5817265,35.9751122 C37.1631742,37.1993647 30.4588587,44.8994476 25.9698858,57.6092201 C21.4355597,70.4589212 19.4340488,79.8054973 19.4146472,79.8979648 C19.3369166,80.2591688 19.5247635,80.6075828 19.8454032,80.7737869 L19.0421871,83.1775312 C18.9709336,83.3884961 18.9903667,83.6186418 19.097246,83.8168249 C19.2041287,84.0118085 19.3855001,84.1588481 19.602499,84.219582 L25.7885277,85.9680349 C25.8662583,85.9904104 25.940747,86 26.0184776,86 C26.3682694,86 26.6921427,85.7794447 26.8055009,85.4374215 L27.6249099,82.9952992 L28.0038455,83.1007857 C28.4151667,83.2126631 28.8523734,83.0016982 29.0078345,82.605332 L38.8603428,57.1808774 L38.4036766,78.4500253 C38.400438,78.6705806 38.4846457,78.8815455 38.6401102,79.041375 C38.7955714,79.1980051 39.0093285,79.2875021 39.2328029,79.2875021 L39.4562773,79.2875021 L39.4562773,82.2122554 C39.4562773,82.666156 39.8287374,83.0305513 40.2854036,83.0305513 L69.7807438,83.0305513 C70.23741,83.0305513 70.6098701,82.666156 70.6098701,82.2122554 L70.6098701,79.2875021 L70.7685732,79.2875021 C70.9920476,79.2875021 71.2058047,79.1980051 71.3612659,79.041375 C71.5167271,78.884745 71.6009331,78.6737801 71.5976995,78.4500253 L71.1410333,57.1808774 L80.9935416,82.605332 C81.1198507,82.9281743 81.430773,83.1327483 81.7676056,83.1327483 C81.8453362,83.1327483 81.9198249,83.1231587 81.9943219,83.1007841 L82.3764994,82.9921062 L83.1959084,85.4342286 C83.3092665,85.7762517 83.6331399,85.996807 83.9829317,85.996807 C84.0606623,85.996807 84.135151,85.9872174 84.2128816,85.9648427 L90.3989102,84.2163898 C90.6159092,84.1556567 90.7972806,84.0086163 90.904155,83.8136327 C91.0110376,83.6154496 91.0272305,83.3853039 90.9592147,83.174339 L90.1462962,80.7770658 Z M40.0712113,77.6573126 L40.5408367,55.7515304 L54.1957183,58.7626139 L54.1957183,77.6537939 L40.0712113,77.6573126 Z M44.5374661,35.5437123 C45.1787456,37.9858347 46.6750367,39.7854311 48.8936129,40.8594445 L48.8936129,51.7403256 C48.8936129,52.1942261 49.2660731,52.5586215 49.7227393,52.5586215 C50.1794055,52.5586215 50.5518656,52.1942261 50.5518656,51.7403256 L50.5518656,41.4895324 C51.6433275,41.8059838 52.8611483,41.9817865 54.1954613,42.0169487 L54.1954613,57.0915964 L40.5762321,54.0868955 L40.6053809,52.6037341 C41.9948308,47.3839062 40.5341274,39.3350656 40.0645086,37.0372906 C40.6183401,36.8135357 41.8458036,36.3724251 44.5372306,35.5445551 L44.5374661,35.5437123 Z M60.4110898,52.5585397 C60.867756,52.5585397 61.2402161,52.1941443 61.2402161,51.7402437 L61.2402161,40.8209028 C63.4069719,39.743698 64.874111,37.9664411 65.5088901,35.5595054 C68.3330602,36.4321362 69.5216957,36.8668968 70.0043302,37.0650063 C69.5638568,39.2002677 68.0837419,47.1783257 69.3824854,52.4751553 C69.3824854,52.4879404 69.3760083,52.49753 69.3760083,52.5135121 L69.4083956,54.0989605 L55.8538383,57.0908141 L55.8538383,42.0161664 C57.2238038,41.981005 58.4674933,41.7956111 59.5816732,41.4663697 L59.5816732,51.7433483 C59.5816732,52.1940494 59.9541334,52.5584447 60.4107996,52.5584447 L60.4110898,52.5585397 Z M55.0671218,39.983786 L49.1531295,33.478988 L60.9814458,33.478988 L55.0671218,39.983786 Z M55.8541451,58.7661326 L69.4443548,55.7678145 L69.9139803,77.6572307 L55.854485,77.6572307 L55.8541451,58.7661326 Z M63.9284261,35.0772836 C62.9891918,38.7691894 59.9090703,40.0062073 57.000661,40.3066856 L63.2094077,33.4726053 C63.6822667,33.8689715 64.0968216,34.418719 63.9284178,35.0772018 L63.9284261,35.0772836 Z M55.0667238,29.6369249 C59.9896614,29.6369249 61.3596269,30.9858039 61.7386205,31.676282 C61.7256654,31.6986567 61.7062332,31.7178359 61.6932781,31.7402114 C61.680323,31.7721757 61.6835615,31.807337 61.673845,31.8392989 L48.3788043,31.8424951 C48.3690877,31.81053 48.3723271,31.781762 48.3593712,31.7497986 C48.6929619,31.0689518 49.9949887,29.6369585 55.0668374,29.6369585 L55.0667238,29.6369249 Z M46.8855685,33.434309 L53.1396684,40.3163415 C50.208541,40.0318527 47.0734485,38.8075675 46.1245134,35.0773654 C45.9528594,34.3933191 46.3965663,33.8275821 46.8856265,33.4343909 L46.8855685,33.434309 Z M25.4775265,84.1817497 L20.8849129,82.8840142 L21.429027,81.2569964 L26.0216407,82.5483492 L25.4775265,84.1817497 Z M27.7219715,81.327288 L21.2023024,79.4925049 C21.7626094,77.0503825 23.764137,68.8260173 27.5340915,58.1497103 C31.1744536,47.8440913 36.3369258,40.9172162 38.6203397,38.3060339 C39.1676957,41.2915048 40.15555,47.9717455 38.989558,52.2489783 L27.7219715,81.327288 Z M68.3514594,81.2308792 L41.1082162,81.2308792 L41.1082162,79.2975458 L68.3514594,79.2975458 L68.3514594,81.2308792 Z M71.0764071,52.4502382 C71.0731685,52.4342552 71.0796457,52.4214694 71.0731685,52.4054872 C69.8877666,48.1126249 70.8917971,41.3715848 71.4391532,38.3921693 C73.787239,41.0963919 78.8591706,47.9686867 82.4540965,58.1499247 C86.224051,68.8262317 88.225562,77.0541974 88.7858856,79.4927192 L82.2662165,81.3275024 L71.0764071,52.4502382 Z M84.5140576,84.1812996 L83.9667015,82.5510905 L88.5593152,81.2597377 L89.1034294,82.8867555 L84.5140576,84.1812996 Z"></path>
            </g>
        </g>
    </g>
</svg>