<?xml version="1.0" encoding="UTF-8"?>
<svg width="110px" height="102px" viewBox="0 0 110 102" version="1.1" xmlns="http://www.w3.org/2000/svg" xmlns:xlink="http://www.w3.org/1999/xlink">
    <!-- Generator: Sketch 55 (78076) - https://sketchapp.com -->
    <title>helmet</title>
    <desc>Created with Sketch.</desc>
    <g id="Feb-2019" stroke="none" stroke-width="1" fill="none" fill-rule="evenodd">
        <g id="What-to-bring" fill="#FFFFFF" fill-rule="nonzero">
            <g id="helmet">
                <path d="M39.300865,46.9708513 C37.5125434,47.7521275 42.003441,49.1752412 41.5195415,49.7329961 C41.0356649,50.2907398 35.0753501,51.603209 34.5804335,52.7695991 C34.0876404,53.9381988 36.5984604,54.777041 36.1569171,56.3240687 C35.7154081,57.8711532 32.6761176,58.5063615 32.6761176,59.7236316 C32.6761176,60.9409018 35.7421461,68.6299199 37.9786898,70.010709 C40.2130072,71.3917815 46.2649758,67.2175715 50.6844044,67.8018997 C55.1061734,68.3839615 56.2389445,71.4781304 59.7264799,72.582535 C63.211732,73.6891494 76.323027,73.50325 76.7580056,72.582535 C78.2921331,69.3334594 77.1727538,57.6584538 67.624596,51.5987329 C57.779922,45.3509029 39.9566439,46.685288 39.3013217,46.9707946 L39.300865,46.9708513 Z M32.6985515,55.4255643 C31.8824243,54.3587814 31.530103,53.1237769 32.1143558,51.7427044 C32.4599811,50.9215967 33.0286101,50.4036732 33.7956453,49.9388963 C34.4801943,49.5228012 35.3253201,49.1620396 36.5115788,48.7437233 C36.4736717,48.6596181 36.4357658,48.5710879 36.4023147,48.4803479 C35.7311232,46.7163713 36.7033405,45.2024893 38.2240874,44.5385547 C39.4058935,44.0228636 45.11182,43.8214735 50.2071209,44.1844335 C57.7147837,44.7222557 64.2817052,46.3268381 69.0647577,49.3612313 C73.952559,52.4620293 77.2460094,57.0856048 78.9002983,62.3554939 C80.2604913,66.6846107 80.3652972,71.1994569 79.1790271,73.7117339 C78.2179641,75.7456924 76.0059664,75.958165 69.4034245,75.9980533 C64.9192058,76.026826 60.8762449,75.7368875 58.911991,75.1127504 C57.2931512,74.6014901 56.2585072,73.9463604 54.5125417,72.5652879 L54.3274646,72.4192144 C52.6216291,71.0691346 51.8055019,70.6286646 50.3315979,70.4339263 C49.5533743,70.3321151 48.5075989,70.4649122 47.1317649,70.8411656 C46.5051559,71.0138011 45.862963,71.2152082 44.9242198,71.5339399 C42.2305489,72.4436062 42.0744818,72.4944864 41.091156,72.7113785 C39.3139658,73.1053368 37.8690604,73.0721401 36.5623549,72.2665117 C33.8330637,70.5777788 30,62.3465871 30,59.7238243 C30,58.0771893 30.8049959,57.2073545 32.2543538,56.2578566 C32.3769927,56.1803919 32.4996373,56.1007174 32.6579535,56.0033313 C32.6802516,55.9900515 32.9099272,55.8484019 32.9991206,55.7908586 C32.8697915,55.6469948 32.8185017,55.582811 32.6980948,55.4256719 L32.6985515,55.4255643 Z M46.7131978,52.3889613 C45.9862926,52.2605938 45.5001669,51.572273 45.6295188,50.8485061 C45.7588479,50.1270055 46.4523248,49.6444942 47.1815134,49.7728843 C49.4894119,50.1801237 51.7794431,50.7600041 54.0492667,51.5169168 C56.3281665,52.2760392 58.3439101,53.1326157 60.0990089,54.0842667 C60.7456543,54.4361725 60.9842646,55.2440276 60.6297114,55.8858651 C60.2751695,56.5299123 59.4612629,56.7667485 58.8123912,56.4148314 C57.2046827,55.5405771 55.3315917,54.7460426 53.1976847,54.0355906 C51.0525892,53.3207192 48.8918528,52.7718031 46.7135346,52.3889557 L46.7131978,52.3889613 Z M64.0301426,59.2589114 C63.4191746,58.8450316 63.2653337,58.0172777 63.6822853,57.4130621 C64.0992654,56.8066367 64.9332199,56.6539397 65.5419616,57.0677911 C67.7896367,58.5971411 69.6849904,60.1110232 71.2325325,61.6138 C72.791206,63.127682 74.1781713,64.8053096 75.388919,66.6467395 C75.7947506,67.2620038 75.6208219,68.0831682 75.000926,68.4859597 C74.3832792,68.8865586 73.5537372,68.7139231 73.1501547,68.0986419 C72.0441559,66.4188045 70.7820899,64.8893978 69.3616734,63.5105351 C67.9323519,62.1228335 66.1551616,60.7041393 64.0301597,59.2588717 L64.0301426,59.2589114 Z M46.4968502,59.1814467 C45.4354338,58.7764228 43.9593036,58.2673609 42.0728549,57.6543064 C41.3704386,57.4285527 40.9869495,56.6782352 41.2165977,55.9810982 C41.4440425,55.2839045 42.1999805,54.9032667 42.9023397,55.1312074 C44.8311446,55.7553672 46.3496881,56.2776534 47.4601395,56.7048084 C48.5906844,57.1363943 50.102492,57.818052 52.0090342,58.7520819 C53.0860344,59.2788385 52.9723235,60.8369772 51.8306473,61.2065663 L49.4335839,61.9812134 C48.7311676,62.206967 47.9752638,61.826284 47.7456156,61.1291129 C47.5917576,60.6576899 47.7166273,60.164147 48.0310347,59.8210745 C47.4490652,59.5643395 46.9361672,59.3496514 46.4969073,59.1814467 L46.4968502,59.1814467 Z M39.949908,63.2338957 C39.0691048,62.6982889 38.2797498,62.310971 37.5907482,62.0741348 C36.8905582,61.8328905 36.5226531,61.0781762 36.7634897,60.3854019 C37.0065411,59.6904179 37.7669089,59.3252482 38.4648726,59.5642941 C39.3545809,59.8697222 40.3134177,60.3389412 41.350288,60.9697301 C42.3715745,61.5938899 43.3080915,62.2755589 44.1554435,63.0170036 C44.9091211,63.6765754 44.6883723,64.8960553 43.7496119,65.2523862 L40.7638432,66.3899932 C40.0748416,66.651159 39.3010705,66.3103188 39.035745,65.624185 C38.7703966,64.9403063 39.1160162,64.1722884 39.8050635,63.9089355 L40.5609673,63.6234233 C40.3625097,63.490625 40.1573677,63.3600478 39.9499993,63.23389 L39.949908,63.2338957 Z M56.0646677,64.6105487 C55.4313799,64.2298656 55.2307303,63.413166 55.6142422,62.7867965 C55.9977769,62.1582173 56.8205943,61.9590596 57.4516558,62.33972 L66.0701696,67.5342521 C66.7012311,67.9149352 66.9041069,68.7316348 66.5205951,69.360214 C66.1370661,69.9865835 65.3120166,70.1857412 64.6809551,69.8050808 L56.0646677,64.6105487 Z"></path>
            </g>
        </g>
    </g>
</svg>