<?xml version="1.0" encoding="UTF-8"?>
<svg width="110px" height="102px" viewBox="0 0 110 102" version="1.1" xmlns="http://www.w3.org/2000/svg" xmlns:xlink="http://www.w3.org/1999/xlink">
    <!-- Generator: Sketch 55 (78076) - https://sketchapp.com -->
    <title>inner tube</title>
    <desc>Created with Sketch.</desc>
    <g id="Feb-2019" stroke="none" stroke-width="1" fill="none" fill-rule="evenodd">
        <g id="What-to-bring" transform="translate(-361.000000, -299.000000)">
            <g id="spare-tubes" transform="translate(361.000000, 299.000000)">
                <g id="inner-tube" transform="translate(55.000000, 60.000000) rotate(13.000000) translate(-55.000000, -60.000000) translate(29.000000, 45.000000)">
                    <path d="M26,8.55994898 C26,8.55994898 21.8960459,8.5184949 18.9528061,6.07270408 C16.4655612,4 13.1492347,4 13.1492347,4 C6.06058673,4 0.298469388,9.76211735 0.298469388,16.8507653 C0.298469388,23.8979592 6.06058673,29.7015306 13.1492347,29.7015306 C13.1492347,29.7015306 16.4655612,29.7015306 18.9528061,27.6288265 C21.8960459,25.1830357 26,25.1415816 26,25.1415816 C26,25.1415816 30.1039541,25.1830357 33.0471939,27.6288265 C35.5344388,29.7015306 38.8507653,29.7015306 38.8507653,29.7015306 C45.9394133,29.7015306 51.7015306,23.9394133 51.7015306,16.8507653 C51.7015306,9.80357143 45.9394133,4 38.8507653,4 C38.8507653,4 35.5344388,4 33.0471939,6.07270408 C30.1039541,8.5184949 26,8.55994898 26,8.55994898 Z" id="Shape" stroke="#FFFFFF" stroke-width="2" stroke-linecap="round" stroke-linejoin="round"></path>
                    <polyline id="Shape" stroke="#FFFFFF" stroke-width="1.71186896" stroke-linecap="round" stroke-linejoin="round" points="23.0256299 8.22495105 23.0256299 7.22495105 28.0256299 7.22495105 28.0256299 8.22495105"></polyline>
                    <rect id="Rectangle-20" fill="#FFFFFF" x="24.5500979" y="0.0512598704" width="3" height="8"></rect>
                    <path d="M26,13.2028061 C26,13.2028061 22.5593112,13.161352 20.0720663,11.130102 C17.9993622,9.38903061 13.9783163,8.14540816 13.9783163,8.14540816 C8.05038265,8.14540816 4.44387755,10.9228316 4.44387755,16.8507653 C4.44387755,22.778699 8.05038265,25.5561224 13.9783163,25.5561224 C13.9783163,25.5561224 17.9993622,24.3125 20.0720663,22.5714286 C22.5178571,20.4987245 26,20.4987245 26,20.4987245 C26,20.4987245 29.4406888,20.5401786 31.9279337,22.5714286 C34.0006378,24.3125 38.0216837,25.5561224 38.0216837,25.5561224 C43.9496173,25.5561224 47.5561224,22.778699 47.5561224,16.8507653 C47.5561224,10.9228316 43.9496173,8.14540816 38.0216837,8.14540816 C38.0216837,8.14540816 34.0006378,9.38903061 31.9279337,11.130102 C29.4406888,13.161352 26,13.2028061 26,13.2028061 Z" id="Shape" stroke="#FFFFFF" stroke-width="2" stroke-linecap="round" stroke-linejoin="round"></path>
                    <path d="M26,16.2704082 C26,16.2704082 23.0153061,16.2289541 20.901148,14.9853316 C19.0771684,13.9075255 15.5950255,12.2908163 15.5950255,12.2908163 C10.6619898,10.2181122 7.34566327,13.161352 7.34566327,16.8507653 C7.34566327,20.5401786 10.6619898,23.4834184 15.5950255,21.4107143 C15.5950255,21.4107143 19.0771684,19.7940051 20.901148,18.716199 C23.0153061,17.4311224 26,17.4311224 26,17.4311224 C26,17.4311224 28.9846939,17.4725765 31.098852,18.716199 C32.9228316,19.7940051 36.4049745,21.4107143 36.4049745,21.4107143 C41.3380102,23.4834184 44.6543367,20.5401786 44.6543367,16.8507653 C44.6543367,13.161352 41.3380102,10.6326531 36.4049745,12.2908163 C36.4049745,12.2908163 32.9228316,13.9075255 31.098852,14.9853316 C28.9846939,16.2289541 26,16.2704082 26,16.2704082 Z" id="Shape" stroke="#FFFFFF" stroke-width="2" stroke-linecap="round" stroke-linejoin="round"></path>
                </g>
            </g>
        </g>
    </g>
</svg>