<?xml version="1.0" encoding="UTF-8"?>
<svg width="110px" height="102px" viewBox="0 0 110 102" version="1.1" xmlns="http://www.w3.org/2000/svg" xmlns:xlink="http://www.w3.org/1999/xlink">
    <!-- Generator: Sketch 55 (78076) - https://sketchapp.com -->
    <title>food</title>
    <desc>Created with Sketch.</desc>
    <g id="Feb-2019" stroke="none" stroke-width="1" fill="none" fill-rule="evenodd">
        <g id="What-to-bring" transform="translate(0.000000, -449.000000)">
            <g id="food" transform="translate(0.000000, 449.000000)">
                <rect id="Rectangle" x="0" y="0" width="110" height="102"></rect>
                <path d="M37.9210891,58.1465842 L46.360198,66.5856931 L45.2656931,68.7205941 L43.6857921,66.8757426 L40.3055446,64.2013366 L37.6292079,60.8210891 L35.7862871,59.2431188 L37.9210891,58.1465842 Z M69.7067327,28.7010396 L65.6805941,24 L62.4163366,30.3678218 L37.3658416,55.4163366 L31,58.6805941 L35.7029703,62.7067327 L38.3967327,66.1082673 L41.7982673,68.8020297 L45.8244059,73.505 L49.0905941,67.1371782 L74.1371287,42.0906436 L80.5049505,38.8244554 L75.8039109,34.7983168 L73.1101485,31.3967822 L69.7067327,28.7010396 Z M73.5858911,39.3599505 L65.1467822,30.9208416 L66.2412871,28.7859406 L67.8192574,30.6288614 L71.199505,33.305198 L73.8739109,36.6835149 L75.7187624,38.2634158 L73.5858911,39.3599505 Z M39.0888614,56.9998567 L64.0001493,32.0886634 L72.4160894,40.5045715 L47.5048015,65.4178714 L39.0888614,56.9998567 Z M57.4424743,40.6906436 L43.8967822,55.1392046 L45.35109,56.6906436 L58.8967822,42.2402544 L57.4424743,40.6906436 Z" id="food-bar" fill="#FFFFFF" fill-rule="nonzero"></path>
            </g>
        </g>
    </g>
</svg>