<?xml version="1.0" encoding="UTF-8"?>
<svg width="50px" height="50px" viewBox="0 0 50 50" version="1.1" xmlns="http://www.w3.org/2000/svg" xmlns:xlink="http://www.w3.org/1999/xlink">
    <!-- Generator: Sketch 49.3 (51167) - http://www.bohemiancoding.com/sketch -->
    <title>food bar</title>
    <desc>Created with Sketch.</desc>
    <defs></defs>
    <g id="Post-16-July" stroke="none" stroke-width="1" fill="none" fill-rule="evenodd">
        <g id="What-to-bring" transform="translate(-61.000000, -473.000000)" fill="#FFFFFF" fill-rule="nonzero">
            <g id="food" transform="translate(0.000000, 449.000000)">
                <path d="M68.4158416,58.1470297 L76.8549505,66.5861386 L75.7604455,68.7210396 L74.1805446,66.8761881 L70.800297,64.2017822 L68.1239604,60.8215347 L66.2810396,59.2435644 L68.4158416,58.1470297 Z M100.201485,28.7014851 L96.1753465,24.0004455 L92.9110891,30.3682673 L67.8605941,55.4167822 L61.4947525,58.6810396 L66.1977228,62.7071782 L68.8914851,66.1087129 L72.2930198,68.8024752 L76.3191584,73.5054455 L79.5853465,67.1376238 L104.631881,42.0910891 L110.999703,38.824901 L106.298663,34.7987624 L103.604901,31.3972277 L100.201485,28.7014851 Z M104.080644,39.360396 L95.6415347,30.9212871 L96.7360396,28.7863861 L98.3140099,30.6293069 L101.694257,33.3056436 L104.368663,36.6839604 L106.213515,38.2638614 L104.080644,39.360396 Z M70.5836139,56.5054455 L93.9999505,33.0891089 L101.910842,41 L78.494505,64.4183168 L70.5836139,56.5054455 Z M88.8402729,40.6910891 L74.3915347,55.1396501 L75.9427964,56.6910891 L90.3915347,42.2406999 L88.8402729,40.6910891 Z" id="food-bar"></path>
            </g>
        </g>
    </g>
</svg>