<?xml version="1.0" encoding="UTF-8"?>
<svg width="50px" height="32px" viewBox="0 0 50 32" version="1.1" xmlns="http://www.w3.org/2000/svg" xmlns:xlink="http://www.w3.org/1999/xlink">
    <!-- Generator: Sketch 49.3 (51167) - http://www.bohemiancoding.com/sketch -->
    <title>helmet</title>
    <desc>Created with Sketch.</desc>
    <defs></defs>
    <g id="Post-16-July" stroke="none" stroke-width="1" fill="none" fill-rule="evenodd">
        <g id="What-to-bring" transform="translate(-55.000000, -44.000000)" fill="#FFFFFF" fill-rule="nonzero">
            <g id="helmet">
                <path d="M64.300865,46.9708513 C62.5125434,47.7521275 67.003441,49.1752412 66.5195415,49.7329961 C66.0356649,50.2907398 60.0753501,51.603209 59.5804335,52.7695991 C59.0876404,53.9381988 61.5984604,54.777041 61.1569171,56.3240687 C60.7154081,57.8711532 57.6761176,58.5063615 57.6761176,59.7236316 C57.6761176,60.9409018 60.7421461,68.6299199 62.9786898,70.010709 C65.2130072,71.3917815 71.2649758,67.2175715 75.6844044,67.8018997 C80.1061734,68.3839615 81.2389445,71.4781304 84.7264799,72.582535 C88.211732,73.6891494 101.323027,73.50325 101.758006,72.582535 C103.292133,69.3334594 102.172754,57.6584538 92.624596,51.5987329 C82.779922,45.3509029 64.9566439,46.685288 64.3013217,46.9707946 L64.300865,46.9708513 Z M57.6985515,55.4255643 C56.8824243,54.3587814 56.530103,53.1237769 57.1143558,51.7427044 C57.4599811,50.9215967 58.0286101,50.4036732 58.7956453,49.9388963 C59.4801943,49.5228012 60.3253201,49.1620396 61.5115788,48.7437233 C61.4736717,48.6596181 61.4357658,48.5710879 61.4023147,48.4803479 C60.7311232,46.7163713 61.7033405,45.2024893 63.2240874,44.5385547 C64.4058935,44.0228636 70.11182,43.8214735 75.2071209,44.1844335 C82.7147837,44.7222557 89.2817052,46.3268381 94.0647577,49.3612313 C98.952559,52.4620293 102.246009,57.0856048 103.900298,62.3554939 C105.260491,66.6846107 105.365297,71.1994569 104.179027,73.7117339 C103.217964,75.7456924 101.005966,75.958165 94.4034245,75.9980533 C89.9192058,76.026826 85.8762449,75.7368875 83.911991,75.1127504 C82.2931512,74.6014901 81.2585072,73.9463604 79.5125417,72.5652879 L79.3274646,72.4192144 C77.6216291,71.0691346 76.8055019,70.6286646 75.3315979,70.4339263 C74.5533743,70.3321151 73.5075989,70.4649122 72.1317649,70.8411656 C71.5051559,71.0138011 70.862963,71.2152082 69.9242198,71.5339399 C67.2305489,72.4436062 67.0744818,72.4944864 66.091156,72.7113785 C64.3139658,73.1053368 62.8690604,73.0721401 61.5623549,72.2665117 C58.8330637,70.5777788 55,62.3465871 55,59.7238243 C55,58.0771893 55.8049959,57.2073545 57.2543538,56.2578566 C57.3769927,56.1803919 57.4996373,56.1007174 57.6579535,56.0033313 C57.6802516,55.9900515 57.9099272,55.8484019 57.9991206,55.7908586 C57.8697915,55.6469948 57.8185017,55.582811 57.6980948,55.4256719 L57.6985515,55.4255643 Z M71.7131978,52.3889613 C70.9862926,52.2605938 70.5001669,51.572273 70.6295188,50.8485061 C70.7588479,50.1270055 71.4523248,49.6444942 72.1815134,49.7728843 C74.4894119,50.1801237 76.7794431,50.7600041 79.0492667,51.5169168 C81.3281665,52.2760392 83.3439101,53.1326157 85.0990089,54.0842667 C85.7456543,54.4361725 85.9842646,55.2440276 85.6297114,55.8858651 C85.2751695,56.5299123 84.4612629,56.7667485 83.8123912,56.4148314 C82.2046827,55.5405771 80.3315917,54.7460426 78.1976847,54.0355906 C76.0525892,53.3207192 73.8918528,52.7718031 71.7135346,52.3889557 L71.7131978,52.3889613 Z M89.0301426,59.2589114 C88.4191746,58.8450316 88.2653337,58.0172777 88.6822853,57.4130621 C89.0992654,56.8066367 89.9332199,56.6539397 90.5419616,57.0677911 C92.7896367,58.5971411 94.6849904,60.1110232 96.2325325,61.6138 C97.791206,63.127682 99.1781713,64.8053096 100.388919,66.6467395 C100.794751,67.2620038 100.620822,68.0831682 100.000926,68.4859597 C99.3832792,68.8865586 98.5537372,68.7139231 98.1501547,68.0986419 C97.0441559,66.4188045 95.7820899,64.8893978 94.3616734,63.5105351 C92.9323519,62.1228335 91.1551616,60.7041393 89.0301597,59.2588717 L89.0301426,59.2589114 Z M71.4968502,59.1814467 C70.4354338,58.7764228 68.9593036,58.2673609 67.0728549,57.6543064 C66.3704386,57.4285527 65.9869495,56.6782352 66.2165977,55.9810982 C66.4440425,55.2839045 67.1999805,54.9032667 67.9023397,55.1312074 C69.8311446,55.7553672 71.3496881,56.2776534 72.4601395,56.7048084 C73.5906844,57.1363943 75.102492,57.818052 77.0090342,58.7520819 C78.0860344,59.2788385 77.9723235,60.8369772 76.8306473,61.2065663 L74.4335839,61.9812134 C73.7311676,62.206967 72.9752638,61.826284 72.7456156,61.1291129 C72.5917576,60.6576899 72.7166273,60.164147 73.0310347,59.8210745 C72.4490652,59.5643395 71.9361672,59.3496514 71.4969073,59.1814467 L71.4968502,59.1814467 Z M64.949908,63.2338957 C64.0691048,62.6982889 63.2797498,62.310971 62.5907482,62.0741348 C61.8905582,61.8328905 61.5226531,61.0781762 61.7634897,60.3854019 C62.0065411,59.6904179 62.7669089,59.3252482 63.4648726,59.5642941 C64.3545809,59.8697222 65.3134177,60.3389412 66.350288,60.9697301 C67.3715745,61.5938899 68.3080915,62.2755589 69.1554435,63.0170036 C69.9091211,63.6765754 69.6883723,64.8960553 68.7496119,65.2523862 L65.7638432,66.3899932 C65.0748416,66.651159 64.3010705,66.3103188 64.035745,65.624185 C63.7703966,64.9403063 64.1160162,64.1722884 64.8050635,63.9089355 L65.5609673,63.6234233 C65.3625097,63.490625 65.1573677,63.3600478 64.9499993,63.23389 L64.949908,63.2338957 Z M81.0646677,64.6105487 C80.4313799,64.2298656 80.2307303,63.413166 80.6142422,62.7867965 C80.9977769,62.1582173 81.8205943,61.9590596 82.4516558,62.33972 L91.0701696,67.5342521 C91.7012311,67.9149352 91.9041069,68.7316348 91.5205951,69.360214 C91.1370661,69.9865835 90.3120166,70.1857412 89.6809551,69.8050808 L81.0646677,64.6105487 Z"></path>
            </g>
        </g>
    </g>
</svg>