<?xml version="1.0" encoding="UTF-8"?>
<svg width="44px" height="26px" viewBox="0 0 44 26" version="1.1" xmlns="http://www.w3.org/2000/svg" xmlns:xlink="http://www.w3.org/1999/xlink">
    <!-- Generator: Sketch 49.3 (51167) - http://www.bohemiancoding.com/sketch -->
    <title>id</title>
    <desc>Created with Sketch.</desc>
    <defs></defs>
    <g id="Post-16-July" stroke="none" stroke-width="1" fill="none" fill-rule="evenodd">
        <g id="What-to-bring" transform="translate(-239.000000, -199.000000)" fill="#FFFFFF" fill-rule="nonzero">
            <g id="ID" transform="translate(180.000000, 150.000000)">
                <g id="id" transform="translate(59.000000, 49.000000)">
                    <path d="M3.82608696,0 C1.72250435,0 0,1.67217143 0,3.71428571 L0,22.2857143 C0,24.3278286 1.72250435,26 3.82608696,26 L40.173913,26 C42.2774957,26 44,24.3278286 44,22.2857143 L44,3.71428571 C44,1.67217143 42.2774957,0 40.173913,0 L3.82608696,0 Z M3.77432712,1.85714286 L39.9648033,1.85714286 C41.0362319,1.85714286 41.8695652,2.65922619 41.8695652,3.69047619 L41.8695652,22.0238095 C41.8695652,23.0550595 41.0362319,23.8571429 39.9648033,23.8571429 L3.77432712,23.8571429 C2.70289855,23.8571429 1.86956522,23.0550595 1.86956522,22.0238095 L1.86956522,3.69047619 C1.86956522,2.65922619 2.70289855,1.85714286 3.77432712,1.85714286 Z M11.6847826,6.03571429 C9.88822391,6.03571429 8.41304348,7.50109286 8.41304348,9.28571429 C8.41304348,11.0703357 9.88822391,12.5357143 11.6847826,12.5357143 C13.4813413,12.5357143 14.9565217,11.0703357 14.9565217,9.28571429 C14.9565217,7.50109286 13.4813413,6.03571429 11.6847826,6.03571429 Z M22.3888889,6.96428571 C21.8975556,6.96428571 21.5,7.37960321 21.5,7.89285714 C21.5,8.40611107 21.8975689,8.82142857 22.3888889,8.82142857 L36.6111111,8.82142857 C37.1024444,8.82142857 37.5,8.40611107 37.5,7.89285714 C37.5,7.37960321 37.1024311,6.96428571 36.6111111,6.96428571 L22.3888889,6.96428571 Z M11.7826087,7.89285714 C12.6224587,7.89285714 13.2826087,8.55300714 13.2826087,9.39285714 C13.2826087,10.2327071 12.6224587,10.8928571 11.7826087,10.8928571 C10.9427587,10.8928571 10.2826087,10.2327071 10.2826087,9.39285714 C10.2826087,8.55300714 10.9427587,7.89285714 11.7826087,7.89285714 Z M22.3888889,12.0714286 C21.8975556,12.0714286 21.5,12.4867461 21.5,13 C21.5,13.5132539 21.8975689,13.9285714 22.3888889,13.9285714 L36.6111111,13.9285714 C37.1024444,13.9285714 37.5,13.5132539 37.5,13 C37.5,12.4867461 37.1024311,12.0714286 36.6111111,12.0714286 L22.3888889,12.0714286 Z M11.6847826,13.4642857 C9.83713804,13.4642857 8.15742717,13.9340036 6.87953261,14.7555571 C5.60163804,15.5771107 4.67400652,16.8067714 4.67400652,18.2521857 L4.67400652,19.0356679 C4.67400652,19.5217286 5.11948652,19.9642393 5.60878913,19.9642393 L17.760963,19.9642393 C18.250275,19.9642393 18.6957457,19.5217193 18.6957457,19.0356679 L18.6957457,18.2521857 C18.6957457,16.806725 17.7682543,15.5771107 16.4902196,14.7555571 C15.2121848,13.9340036 13.5325207,13.4642857 11.6849696,13.4642857 L11.6847826,13.4642857 Z M11.6847826,15.3214286 C13.2019815,15.3214286 14.5640065,15.73312 15.482337,16.3225214 C16.3331293,16.8702393 16.7238217,17.4977214 16.7822457,18.1071429 L6.58750652,18.1071429 C6.64593043,17.4977679 7.03664152,16.8702393 7.88741522,16.3225214 C8.80574565,15.7331107 10.1677707,15.3214286 11.6849696,15.3214286 L11.6847826,15.3214286 Z M22.3888889,17.1785714 C21.8975556,17.1785714 21.5,17.5938889 21.5,18.1071429 C21.5,18.6203968 21.8975689,19.0357143 22.3888889,19.0357143 L36.6111111,19.0357143 C37.1024444,19.0357143 37.5,18.6203968 37.5,18.1071429 C37.5,17.5938889 37.1024311,17.1785714 36.6111111,17.1785714 L22.3888889,17.1785714 Z" id="Shape"></path>
                </g>
            </g>
        </g>
    </g>
</svg>