<?xml version="1.0" encoding="UTF-8"?>
<svg width="27px" height="45px" viewBox="0 0 27 45" version="1.1" xmlns="http://www.w3.org/2000/svg" xmlns:xlink="http://www.w3.org/1999/xlink">
    <!-- Generator: Sketch 49.3 (51167) - http://www.bohemiancoding.com/sketch -->
    <title>mobile</title>
    <desc>Created with Sketch.</desc>
    <defs></defs>
    <g id="Post-16-July" stroke="none" stroke-width="1" fill="none" fill-rule="evenodd">
        <g id="What-to-bring" transform="translate(-69.000000, -189.000000)">
            <g id="mobile-phone" transform="translate(0.000000, 150.000000)">
                <g id="mobile" transform="translate(71.000000, 41.000000)">
                    <path d="M2.74646214,0 L20.2535379,0 C21.7694378,0 23,1.56446819 23,2.83445672 L23,38.1655433 C23,39.7300115 21.7715984,41 20.2535379,41 L2.74646214,41 C1.23056224,41 1.05193632e-14,39.4355318 1.05193632e-14,38.1655433 L1.05193632e-14,2.83445672 C1.05193632e-14,1.26998853 1.22840165,2.55545175e-15 2.74646214,0 Z" id="Shape" stroke="#FFFFFF" stroke-width="2.05357143" stroke-linecap="round" stroke-linejoin="round"></path>
                    <path d="M-3.49720253e-14,5 L22,5" id="Shape" stroke="#FFFFFF" stroke-width="2.05357143" stroke-linecap="round" stroke-linejoin="round"></path>
                    <path d="M23,32 L3.2501779e-14,32" id="Shape" stroke="#FFFFFF" stroke-width="2.05357143" stroke-linecap="round" stroke-linejoin="round"></path>
                    <path d="M14,13 L7,20" id="Shape" stroke="#FFFFFF" stroke-width="2.05357143" stroke-linecap="round"></path>
                    <path d="M10,11 L5,16" id="Shape" stroke="#FFFFFF" stroke-width="2.05357143" stroke-linecap="round"></path>
                    <path d="M13,36.4992979 C13,38.500234 10,38.500234 10,36.4992979 C10,34.500234 13,34.500234 13,36.4992979" id="Shape" fill="#FFFFFF" fill-rule="nonzero"></path>
                </g>
            </g>
        </g>
    </g>
</svg>