<?xml version="1.0" encoding="UTF-8"?>
<svg width="72px" height="58px" viewBox="0 0 72 58" version="1.1" xmlns="http://www.w3.org/2000/svg" xmlns:xlink="http://www.w3.org/1999/xlink">
    <!-- Generator: Sketch 49.3 (51167) - http://www.bohemiancoding.com/sketch -->
    <title>rain jacket</title>
    <desc>Created with Sketch.</desc>
    <defs></defs>
    <g id="Post-16-July" stroke="none" stroke-width="1" fill="none" fill-rule="evenodd">
        <g id="What-to-bring" transform="translate(-225.000000, -28.000000)" fill="#FFFFFF" fill-rule="nonzero">
            <g id="rain-jacket" transform="translate(180.000000, 0.000000)">
                <path d="M116.146296,80.7770658 C116.466936,80.607654 116.651549,80.2624313 116.577052,79.9012437 C116.55762,79.8085471 114.556057,70.4622001 110.021814,57.612499 C105.52314,44.8781777 98.8219751,37.1968337 97.4099729,35.9783911 C97.1897404,35.7897984 96.8237557,35.4701557 91.5186158,33.8495124 C91.5024221,33.8463153 91.489467,33.8495124 91.4765119,33.8463153 C91.1364374,32.8650148 90.2878764,32.1233932 89.4911689,31.6535277 C89.4037209,31.260361 89.1705291,30.6626531 88.5778033,30.064888 C87.2143051,28.6935876 84.6912736,28 81.0703131,28 C77.4493526,28 74.9230876,28.6968281 73.5595893,30.064888 C72.989565,30.6402482 72.7563732,31.209193 72.659241,31.6023842 C71.8463075,32.0594761 70.9556351,32.81068 70.596126,33.8111286 C65.1776196,35.4636772 64.789008,35.7961509 64.5817265,35.9751122 C63.1631742,37.1993647 56.4588587,44.8994476 51.9698858,57.6092201 C47.4355597,70.4589212 45.4340488,79.8054973 45.4146472,79.8979648 C45.3369166,80.2591688 45.5247635,80.6075828 45.8454032,80.7737869 L45.0421871,83.1775312 C44.9709336,83.3884961 44.9903667,83.6186418 45.097246,83.8168249 C45.2041287,84.0118085 45.3855001,84.1588481 45.602499,84.219582 L51.7885277,85.9680349 C51.8662583,85.9904104 51.940747,86 52.0184776,86 C52.3682694,86 52.6921427,85.7794447 52.8055009,85.4374215 L53.6249099,82.9952992 L54.0038455,83.1007857 C54.4151667,83.2126631 54.8523734,83.0016982 55.0078345,82.605332 L64.8603428,57.1808774 L64.4036766,78.4500253 C64.400438,78.6705806 64.4846457,78.8815455 64.6401102,79.041375 C64.7955714,79.1980051 65.0093285,79.2875021 65.2328029,79.2875021 L65.4562773,79.2875021 L65.4562773,82.2122554 C65.4562773,82.666156 65.8287374,83.0305513 66.2854036,83.0305513 L95.7807438,83.0305513 C96.23741,83.0305513 96.6098701,82.666156 96.6098701,82.2122554 L96.6098701,79.2875021 L96.7685732,79.2875021 C96.9920476,79.2875021 97.2058047,79.1980051 97.3612659,79.041375 C97.5167271,78.884745 97.6009331,78.6737801 97.5976995,78.4500253 L97.1410333,57.1808774 L106.993542,82.605332 C107.119851,82.9281743 107.430773,83.1327483 107.767606,83.1327483 C107.845336,83.1327483 107.919825,83.1231587 107.994322,83.1007841 L108.376499,82.9921062 L109.195908,85.4342286 C109.309267,85.7762517 109.63314,85.996807 109.982932,85.996807 C110.060662,85.996807 110.135151,85.9872174 110.212882,85.9648427 L116.39891,84.2163898 C116.615909,84.1556567 116.797281,84.0086163 116.904155,83.8136327 C117.011038,83.6154496 117.02723,83.3853039 116.959215,83.174339 L116.146296,80.7770658 Z M66.0712113,77.6573126 L66.5408367,55.7515304 L80.1957183,58.7626139 L80.1957183,77.6537939 L66.0712113,77.6573126 Z M70.5374661,35.5437123 C71.1787456,37.9858347 72.6750367,39.7854311 74.8936129,40.8594445 L74.8936129,51.7403256 C74.8936129,52.1942261 75.2660731,52.5586215 75.7227393,52.5586215 C76.1794055,52.5586215 76.5518656,52.1942261 76.5518656,51.7403256 L76.5518656,41.4895324 C77.6433275,41.8059838 78.8611483,41.9817865 80.1954613,42.0169487 L80.1954613,57.0915964 L66.5762321,54.0868955 L66.6053809,52.6037341 C67.9948308,47.3839062 66.5341274,39.3350656 66.0645086,37.0372906 C66.6183401,36.8135357 67.8458036,36.3724251 70.5372306,35.5445551 L70.5374661,35.5437123 Z M86.4110898,52.5585397 C86.867756,52.5585397 87.2402161,52.1941443 87.2402161,51.7402437 L87.2402161,40.8209028 C89.4069719,39.743698 90.874111,37.9664411 91.5088901,35.5595054 C94.3330602,36.4321362 95.5216957,36.8668968 96.0043302,37.0650063 C95.5638568,39.2002677 94.0837419,47.1783257 95.3824854,52.4751553 C95.3824854,52.4879404 95.3760083,52.49753 95.3760083,52.5135121 L95.4083956,54.0989605 L81.8538383,57.0908141 L81.8538383,42.0161664 C83.2238038,41.981005 84.4674933,41.7956111 85.5816732,41.4663697 L85.5816732,51.7433483 C85.5816732,52.1940494 85.9541334,52.5584447 86.4107996,52.5584447 L86.4110898,52.5585397 Z M81.0671218,39.983786 L75.1531295,33.478988 L86.9814458,33.478988 L81.0671218,39.983786 Z M81.8541451,58.7661326 L95.4443548,55.7678145 L95.9139803,77.6572307 L81.854485,77.6572307 L81.8541451,58.7661326 Z M89.9284261,35.0772836 C88.9891918,38.7691894 85.9090703,40.0062073 83.000661,40.3066856 L89.2094077,33.4726053 C89.6822667,33.8689715 90.0968216,34.418719 89.9284178,35.0772018 L89.9284261,35.0772836 Z M81.0667238,29.6369249 C85.9896614,29.6369249 87.3596269,30.9858039 87.7386205,31.676282 C87.7256654,31.6986567 87.7062332,31.7178359 87.6932781,31.7402114 C87.680323,31.7721757 87.6835615,31.807337 87.673845,31.8392989 L74.3788043,31.8424951 C74.3690877,31.81053 74.3723271,31.781762 74.3593712,31.7497986 C74.6929619,31.0689518 75.9949887,29.6369585 81.0668374,29.6369585 L81.0667238,29.6369249 Z M72.8855685,33.434309 L79.1396684,40.3163415 C76.208541,40.0318527 73.0734485,38.8075675 72.1245134,35.0773654 C71.9528594,34.3933191 72.3965663,33.8275821 72.8856265,33.4343909 L72.8855685,33.434309 Z M51.4775265,84.1817497 L46.8849129,82.8840142 L47.429027,81.2569964 L52.0216407,82.5483492 L51.4775265,84.1817497 Z M53.7219715,81.327288 L47.2023024,79.4925049 C47.7626094,77.0503825 49.764137,68.8260173 53.5340915,58.1497103 C57.1744536,47.8440913 62.3369258,40.9172162 64.6203397,38.3060339 C65.1676957,41.2915048 66.15555,47.9717455 64.989558,52.2489783 L53.7219715,81.327288 Z M94.3514594,81.2308792 L67.1082162,81.2308792 L67.1082162,79.2975458 L94.3514594,79.2975458 L94.3514594,81.2308792 Z M97.0764071,52.4502382 C97.0731685,52.4342552 97.0796457,52.4214694 97.0731685,52.4054872 C95.8877666,48.1126249 96.8917971,41.3715848 97.4391532,38.3921693 C99.787239,41.0963919 104.859171,47.9686867 108.454097,58.1499247 C112.224051,68.8262317 114.225562,77.0541974 114.785886,79.4927192 L108.266216,81.3275024 L97.0764071,52.4502382 Z M110.514058,84.1812996 L109.966702,82.5510905 L114.559315,81.2597377 L115.103429,82.8867555 L110.514058,84.1812996 Z"></path>
            </g>
        </g>
    </g>
</svg>