<svg xmlns="http://www.w3.org/2000/svg" viewBox="0 0 259.54 105.54"><defs><style>.cls-1{fill:#fff;}.cls-2{fill:#c1001f;}.cls-3{fill:#5ea03b;}</style></defs><title>White_logo</title><g id="Layer_2" data-name="Layer 2"><g id="Layer_1-2" data-name="Layer 1"><path class="cls-1" d="M0,85V53.94H26.61q7,0,7,6v6.93q0,6-7,6H7.1V85ZM23.36,59.24H7.1v8.37H23.36a5.24,5.24,0,0,0,2.35-.37,2.28,2.28,0,0,0,.9-2.13V61.75a2.31,2.31,0,0,0-.9-2.14A5.24,5.24,0,0,0,23.36,59.24Z"/><path class="cls-1" d="M53.76,85V53.94H85.55v5.3H61v6.93H75.31v5.29H61v7.71H85.85V85Z"/><path class="cls-1" d="M109.36,85V53.94h4.93l21.85,18.31a33,33,0,0,1,3.56,3.37c-.21-2.89-.3-4.68-.3-5.36V53.94h6.5V85H141L118.14,65.8a22,22,0,0,1-2.58-2.52c.2,2,.3,3.65.3,4.93V85Z"/><path class="cls-1" d="M198.06,59.48H175.49V79.17h22.57V72.25h-11.8V67h18.85V77.66c0,2.89-.55,4.84-1.63,5.84S200.37,85,197.4,85H176q-4.46,0-6.08-1.51c-1.08-1-1.63-3-1.63-5.84V61.29c0-2.89.55-4.84,1.63-5.84S173,53.94,176,53.94H197.4c2.89,0,4.9.5,6,1.48s1.69,2.84,1.69,5.57v.72h-7.05Z"/><path class="cls-1" d="M227.45,85V53.94h31.78v5.3H234.67v6.93H249v5.29H234.67v7.71h24.87V85Z"/><path class="cls-1" d="M52.64,97.25H46.31v6.4h6.33V102H55v1.2a2.51,2.51,0,0,1-.53,1.89,2.93,2.93,0,0,1-2,.49h-6a2.93,2.93,0,0,1-2-.49,2.51,2.51,0,0,1-.53-1.89V97.83a2.51,2.51,0,0,1,.53-1.89,2.93,2.93,0,0,1,2-.49h6a2.93,2.93,0,0,1,2,.49A2.51,2.51,0,0,1,55,97.83v1H52.64Z"/><path class="cls-1" d="M89.1,97.25H82.76v6.4H89.1V102h2.35v1.2a2.55,2.55,0,0,1-.53,1.89,2.94,2.94,0,0,1-2,.49h-6a2.94,2.94,0,0,1-2-.49,2.55,2.55,0,0,1-.53-1.89V97.83a2.55,2.55,0,0,1,.53-1.89,2.94,2.94,0,0,1,2-.49h6a2.94,2.94,0,0,1,2,.49,2.55,2.55,0,0,1,.53,1.89v1H89.1Z"/><path class="cls-1" d="M155.53,97.25h-6.34v6.4h6.34V102h2.35v1.2a2.55,2.55,0,0,1-.53,1.89,2.93,2.93,0,0,1-2,.49h-6a3,3,0,0,1-2-.49,2.56,2.56,0,0,1-.52-1.89V97.83a2.56,2.56,0,0,1,.52-1.89,3,3,0,0,1,2-.49h6a2.93,2.93,0,0,1,2,.49,2.55,2.55,0,0,1,.53,1.89v1h-2.35Z"/><path class="cls-1" d="M66.58,105.54V101l-5.25-5.57h3.13l3.46,3.87,3.49-3.87h2.76L68.94,101v4.58Z"/><path class="cls-1" d="M99.74,105.54V95.45h2.35v8.2h7.57v1.89Z"/><path class="cls-1" d="M166.73,105.54V95.45h2.34v8.2h7.58v1.89Z"/><path class="cls-1" d="M186.35,95.45v8.2H193v-8.2h2.35v7.71a2.55,2.55,0,0,1-.53,1.89,2.93,2.93,0,0,1-2,.49h-6.38a2.94,2.94,0,0,1-2-.49,2.55,2.55,0,0,1-.53-1.89V95.45Z"/><path class="cls-1" d="M204.47,105.54V95.45h8.65c1.51,0,2.26.65,2.26,2v1.24c0,1-.58,1.56-1.74,1.7a1.8,1.8,0,0,1,1.82,1.94v1.29c0,1.32-1,2-3,2Zm7.67-8.45h-5.37V99.5h5.37c.71,0,1.07-.24,1.07-.73v-1C213.21,97.33,212.85,97.09,212.14,97.09Zm0,4.07h-5.37v2.56h5.37a1.8,1.8,0,0,0,.82-.13.85.85,0,0,0,.31-.77v-.76a.82.82,0,0,0-.31-.76A1.77,1.77,0,0,0,212.14,101.16Z"/><path class="cls-1" d="M116.53,105.54V95.36H127v1.73h-8.06v2.27h4.7v1.74h-4.7v2.53H127v1.91Z"/><path class="cls-1" d="M142.41,27.4a1,1,0,1,1,.1-2,.9.9,0,0,1,.16,0c0-.39-.07-.75-.12-1.12a.8.8,0,0,1-.31.09A1,1,0,1,1,142,22.5h.17c-.1-.36-.21-.72-.32-1.07a1,1,0,1,1-.88-1.73.76.76,0,0,1,.16,0c-.16-.34-.34-.67-.52-1a1.12,1.12,0,0,1-.24.19,1,1,0,0,1-1.33-.41,1,1,0,0,1,.41-1.33.75.75,0,0,1,.13-.06c-.22-.3-.44-.59-.67-.88a.85.85,0,0,1-.2.22,1,1,0,1,1-1.22-1.54.41.41,0,0,1,.11-.07c-.26-.26-.54-.5-.82-.74a1.16,1.16,0,0,1-.14.24A1,1,0,0,1,135.14,13a.41.41,0,0,1,.1-.09c-.31-.21-.62-.39-.93-.57a1,1,0,0,1-1.46.58,1,1,0,0,1-.33-1.36l.07-.09-1-.39a.74.74,0,0,1,0,.25,1,1,0,0,1-1.84-.69.15.15,0,0,1,0-.09c-.35-.08-.7-.15-1.06-.21a.7.7,0,0,1,0,.25,1,1,0,0,1-1.15.79,1,1,0,0,1-.78-1.14s0-.06,0-.08l-.69,0-.37,0a.69.69,0,0,1,0,.2,1,1,0,1,1-2,0s0,0,0,0l-.7.11a.7.7,0,0,1,.06.19,1,1,0,0,1-.81,1.13,1,1,0,0,1-1.13-.82s0,0,0-.05c-.33.11-.67.22-1,.34l.08.17a1,1,0,1,1-1.86.65v0c-.3.16-.61.33-.9.51l.09.13a1,1,0,0,1-1.7,1v0c-.26.21-.54.44-.8.67a.52.52,0,0,1,.11.1,1,1,0,0,1-.12,1.39,1,1,0,0,1-1.38-.13h0c-.24.27-.46.53-.67.79l.12.08a1,1,0,0,1,.13,1.39,1,1,0,0,1-1.38.13q-.27.45-.51.9l.12,0a1,1,0,0,1,.38,1.34,1,1,0,0,1-1.33.38c-.13.33-.24.64-.35,1l.13,0a1,1,0,0,1,.61,1.26,1,1,0,0,1-1.23.61c-.07.34-.12.67-.17,1h.13a1,1,0,0,1,.82,1.12,1,1,0,0,1-1.09.83c0,.1,0,.18,0,.28,0,.25,0,.5,0,.75l.12,0a1,1,0,0,1,.08,2,9,9,0,0,0,.2,1l.12,0a1,1,0,0,1,.42,1.92c.12.32.24.65.38,1l.12-.07a1,1,0,0,1,.75,1.82q.25.45.54.87l.11-.08a1,1,0,0,1,1.36.3,1,1,0,0,1-.3,1.36c.23.26.46.52.69.76l.1-.11a1,1,0,0,1,1.35,1.45h0c.26.22.53.43.81.64a.67.67,0,0,1,.09-.14,1,1,0,1,1,1.57,1.17v0c.3.17.61.34.92.49a1.15,1.15,0,0,1,.06-.17,1,1,0,1,1,1.77.87s0,0,0,0c.34.12.67.22,1,.32,0-.07,0-.14,0-.2a1,1,0,0,1,1.22-.68,1,1,0,0,1,.67,1.22s0,.05,0,.07c.35.05.7.08,1,.12a.74.74,0,0,1,0-.21,1,1,0,0,1,1.08-.89,1,1,0,0,1,.87,1.09s0,0,0,.06c.36,0,.71,0,1.07,0a1.89,1.89,0,0,1,0-.23,1,1,0,0,1,.9-1.06,1,1,0,0,1,1.07.91s0,.06,0,.09c.36-.07.7-.16,1.05-.25a.94.94,0,0,1-.1-.23,1,1,0,0,1,1.9-.51.25.25,0,0,1,0,.12c.34-.15.67-.29,1-.45a.78.78,0,0,1-.15-.22,1,1,0,1,1,1.78-.84.28.28,0,0,1,0,.12c.31-.19.62-.4.91-.61a1.26,1.26,0,0,1-.2-.2,1,1,0,1,1,1.61-1.15l.06.13q.41-.39.78-.78a1.24,1.24,0,0,1-.23-.17,1,1,0,1,1,1.47-1.3c.23-.29.43-.6.64-.9a1.2,1.2,0,0,1-.28-.13,1,1,0,0,1-.27-1.36,1,1,0,0,1,1.37-.28l.12.1c.17-.33.32-.66.46-1a1.67,1.67,0,0,1-.3-.08,1,1,0,1,1,.79-1.81.42.42,0,0,1,.14.09c.1-.36.19-.72.28-1.09a.85.85,0,0,1-.32,0,1,1,0,0,1,.45-1.91l.16.05c0-.36.06-.74.07-1.11A1.09,1.09,0,0,1,142.41,27.4ZM126,40.66a13.84,13.84,0,1,1,13.84-13.84A13.84,13.84,0,0,1,126,40.66Z"/><path class="cls-2" d="M138.55,27.26a.75.75,0,0,1,.07-1.5l.13,0c0-.28-.05-.57-.09-.86a.73.73,0,0,1-.23.09.77.77,0,0,1-.85-.65.75.75,0,0,1,.65-.85h.13c-.08-.28-.16-.55-.25-.82l-.21.11a.75.75,0,0,1-1-.48.76.76,0,0,1,.49-1h.13c-.13-.27-.27-.52-.4-.77a.9.9,0,0,1-.19.15.75.75,0,1,1-.71-1.33l.11,0c-.17-.22-.33-.44-.52-.66a.73.73,0,0,1-.15.16.75.75,0,0,1-1.06-.12.76.76,0,0,1,.13-1.06l.09-.05c-.21-.2-.42-.38-.62-.56a1.88,1.88,0,0,1-.12.18.77.77,0,0,1-1.07.07.75.75,0,0,1-.06-1.06.23.23,0,0,1,.07-.07l-.72-.44a1.46,1.46,0,0,1-.07.19.76.76,0,0,1-1,.25.74.74,0,0,1-.25-1s0-.05,0-.06l-.78-.31a.49.49,0,0,1,0,.2.75.75,0,1,1-1.39-.54.09.09,0,0,1,0-.06,7.67,7.67,0,0,0-.81-.15v.17a.77.77,0,0,1-.88.61.75.75,0,0,1-.61-.87.13.13,0,0,0,0-.06h-.81a1,1,0,0,1,0,.17.75.75,0,0,1-1.5,0v-.05l-.53.09a.43.43,0,0,1,0,.14.75.75,0,1,1-1.48.25v0a6.81,6.81,0,0,0-.76.26l.06.12a.76.76,0,0,1-.46,1,.75.75,0,0,1-1-.46v0c-.24.12-.47.26-.71.4a.43.43,0,0,1,.09.1.75.75,0,0,1-1.31.75h0c-.21.15-.41.33-.61.5l.09.08a.76.76,0,0,1-1.16,1h0c-.17.19-.35.4-.5.6a.47.47,0,0,0,.09.06.77.77,0,0,1,.1,1.07.76.76,0,0,1-1,.1c-.14.22-.28.45-.41.68l.1,0a.75.75,0,0,1,.29,1,.74.74,0,0,1-1,.28q-.15.38-.27.75a.17.17,0,0,1,.1,0,.74.74,0,0,1,.46.95.73.73,0,0,1-.93.47,6.34,6.34,0,0,0-.13.78h.1a.75.75,0,0,1,.62.86.74.74,0,0,1-.83.63,1.55,1.55,0,0,0,0,.21c0,.2,0,.39,0,.57h.09a.74.74,0,0,1,.77.72.76.76,0,0,1-.7.78,6,6,0,0,0,.14.76l.09,0a.74.74,0,0,1,.89.57.75.75,0,0,1-.56.9c.09.24.18.48.28.73l.09,0a.76.76,0,0,1,1,.41.75.75,0,0,1-.41,1c.14.23.27.45.42.68a.14.14,0,0,1,.08-.07.75.75,0,0,1,1,.22.76.76,0,0,1-.23,1c.17.2.35.39.53.59a.3.3,0,0,1,.08-.08.75.75,0,0,1,1.06,0,.77.77,0,0,1,0,1.07h0a7.31,7.31,0,0,0,.62.48.61.61,0,0,1,.07-.1.75.75,0,1,1,1.2.9h0l.7.37.05-.12a.75.75,0,1,1,1.35.67h0a5.56,5.56,0,0,0,.76.24l0-.14a.77.77,0,0,1,.94-.51.75.75,0,0,1,.51.93s0,0,0,0c.26,0,.53.06.8.08a.29.29,0,0,1,0-.16.75.75,0,0,1,1.49.16s0,0,0,.06c.28,0,.54,0,.82-.06a.47.47,0,0,1,0-.16.75.75,0,1,1,1.5-.12v.07c.27-.06.54-.12.8-.2a.45.45,0,0,1-.08-.17.76.76,0,0,1,.54-.92.75.75,0,0,1,.92.53.13.13,0,0,0,0,.09l.76-.34a.42.42,0,0,1-.11-.16.75.75,0,1,1,1.36-.64.19.19,0,0,1,0,.08c.24-.15.47-.31.7-.47a.71.71,0,0,1-.15-.15.75.75,0,1,1,1.22-.88.19.19,0,0,1,.05.1c.21-.2.41-.39.6-.6l-.18-.12a.76.76,0,1,1,1.06-1.08s0,0,.07.09c.16-.23.33-.47.47-.7a.62.62,0,0,1-.2-.1.74.74,0,0,1-.2-1,.76.76,0,0,1,1-.21l.1.08c.12-.25.24-.51.34-.78a.47.47,0,0,1-.22,0,.74.74,0,0,1-.39-1,.76.76,0,0,1,1-.39l.1.06a7.21,7.21,0,0,0,.22-.83.49.49,0,0,1-.24,0,.74.74,0,0,1-.56-.9.75.75,0,0,1,.9-.57l.13.05c0-.28,0-.56,0-.86A.5.5,0,0,1,138.55,27.26ZM126,38a11.13,11.13,0,1,1,11.13-11.13A11.14,11.14,0,0,1,126,38Z"/><path class="cls-1" d="M131.31,25.7h-6.2V32h6.2V30.3h2.3v1.18a2.57,2.57,0,0,1-.51,1.86,3,3,0,0,1-1.94.47h-5.9a2.9,2.9,0,0,1-1.92-.47,2.52,2.52,0,0,1-.52-1.86V26.27a2.51,2.51,0,0,1,.52-1.86,2.9,2.9,0,0,1,1.92-.47h5.9a3,3,0,0,1,1.94.47,2.55,2.55,0,0,1,.51,1.86v.94h-2.3Zm-4.2,2.23h-.79v1.86H127a2.88,2.88,0,0,0,1.94-.48,2.51,2.51,0,0,0,.52-1.86v-.62h-2.31Zm1.79-7.55a3,3,0,0,0-1.94-.47h-5.88a3,3,0,0,0-1.93.47,2.55,2.55,0,0,0-.53,1.87v5.2a2.5,2.5,0,0,0,.53,1.86,2.85,2.85,0,0,0,1.93.48h.56V27.93h-.72V21.68h6.19v1h2.31v-.47A2.55,2.55,0,0,0,128.9,20.38Z"/><path class="cls-3" d="M167.38,22.45c6.61,0,8.49-3.82,8.49-3.82H143.36a14,14,0,0,1,1.4,3.82Z"/><path class="cls-2" d="M152.27,33.93a18.11,18.11,0,0,0,11.25-3.6H145a12.11,12.11,0,0,1-1,3.6Z"/><path class="cls-1" d="M145.19,27.77h17.23A10.59,10.59,0,0,0,168.86,25H145.18c0,.47.08.95.08,1.44S145.22,27.33,145.19,27.77Z"/><path class="cls-3" d="M84.71,22.45c-6.6,0-8.48-3.82-8.48-3.82h32.5a14.3,14.3,0,0,0-1.39,3.82Z"/><path class="cls-2" d="M99.83,33.93a18.13,18.13,0,0,1-11.26-3.6h18.57a12.41,12.41,0,0,0,1,3.6Z"/><path class="cls-1" d="M106.91,27.77H89.67c-3.55,0-6.43-2.75-6.43-2.75h23.67c0,.47-.07.95-.07,1.44S106.88,27.33,106.91,27.77Z"/><path class="cls-1" d="M119.45,8.85a18.58,18.58,0,0,1,13.11,0,12.11,12.11,0,0,1,5.21-7.58,9.3,9.3,0,0,0-4.19,2.13,4.24,4.24,0,0,0-1.35-.22,4.12,4.12,0,0,0-1.5.28h.09a1.62,1.62,0,1,1,0,3.24,1.55,1.55,0,0,1-1.17-.51,1.52,1.52,0,0,1-.48.1,1.87,1.87,0,0,1,0-3.73,1.75,1.75,0,0,1,.24,0,3.86,3.86,0,0,0-2.09-.32l-.11,0A3.57,3.57,0,0,0,126.05.07V0s0,0,0,0h0V0l0,0V0h0l0,0V.07a3.67,3.67,0,0,0-1.16,2.23l-.1,0a3.86,3.86,0,0,0-2.09.32,1.81,1.81,0,0,1,.23,0,1.87,1.87,0,0,1,0,3.73,1.52,1.52,0,0,1-.47-.1,1.55,1.55,0,0,1-1.17.51,1.62,1.62,0,0,1,0-3.24h.09a4.14,4.14,0,0,0-1.51-.28,4.34,4.34,0,0,0-1.35.22,9.21,9.21,0,0,0-4.18-2.13A12.06,12.06,0,0,1,119.45,8.85Z"/><path class="cls-1" d="M106.84,10c-.17-.51-.4-.73-.76-.73a.53.53,0,0,0-.57.6c0,.81,2.31.87,2.31,2.57A1.52,1.52,0,0,1,106.1,14a1.76,1.76,0,0,1-1.77-1.52l1-.22c.12.66.49.89.8.89a.61.61,0,0,0,.64-.65c0-1-2.31-1-2.31-2.54a1.43,1.43,0,0,1,1.62-1.52,1.61,1.61,0,0,1,1.67,1.31Z"/><path class="cls-1" d="M109.21,13.91V8.5h2.84v.91h-1.8v1.24h1.37v.92h-1.37V13h1.87v.92Z"/><path class="cls-1" d="M140.12,13.91V13c2-2,2.35-2.44,2.35-3a.66.66,0,0,0-.68-.75.67.67,0,0,0-.72.72v.19h-.93V9.93a1.63,1.63,0,0,1,3.26.07c0,1.25-1.37,2.21-2.11,3.05h2v.86Z"/><path class="cls-1" d="M144.55,10.29a1.71,1.71,0,1,1,3.4,0v1.82a1.71,1.71,0,1,1-3.4,0Zm.93,1.71c0,.87.25,1.13.77,1.13s.77-.26.77-1.13V10.41c0-.88-.25-1.14-.77-1.14s-.77.26-.77,1.14Z"/></g></g></svg>