<svg id="Layer_1" data-name="Layer 1" xmlns="http://www.w3.org/2000/svg" viewBox="0 0 259.54 105.54"><defs><style>.cls-1{fill:#19181b;}.cls-2{fill:#e1001a;}.cls-3{fill:#1ea02d;}</style></defs><title>whiteLogo</title><path class="cls-1" d="M382,417V385.9h26.61q7,0,7,6v6.92q0,6-7,6h-19.5V417Zm23.36-25.76H389.06v8.36h16.25a5.35,5.35,0,0,0,2.35-.36,2.31,2.31,0,0,0,.9-2.14V393.7a2.31,2.31,0,0,0-.9-2.14A5.35,5.35,0,0,0,405.31,391.2Z" transform="translate(-381.95 -331.96)"/><path class="cls-1" d="M435.71,417V385.9H467.5v5.3H442.94v6.92h14.33v5.3H442.94v7.7H467.8V417Z" transform="translate(-381.95 -331.96)"/><path class="cls-1" d="M491.31,417V385.9h4.93l21.86,18.3a34.82,34.82,0,0,1,3.55,3.37c-.2-2.89-.3-4.67-.3-5.36V385.9h6.5V417h-4.94l-22.81-19.2a22.21,22.21,0,0,1-2.59-2.53c.2,2,.3,3.65.3,4.94V417Z" transform="translate(-381.95 -331.96)"/><path class="cls-1" d="M580,391.44H557.44v19.68H580V404.2h-11.8v-5.3h18.84v10.72q0,4.33-1.62,5.84t-6.08,1.5H557.92c-3,0-5-.5-6.08-1.5s-1.63-2.95-1.63-5.84V393.25c0-2.89.55-4.84,1.63-5.85s3.11-1.5,6.08-1.5h21.44c2.89,0,4.89.49,6,1.47s1.68,2.84,1.68,5.57v.73h-7Z" transform="translate(-381.95 -331.96)"/><path class="cls-1" d="M609.4,417V385.9h31.79v5.3H616.63v6.92H631v5.3H616.63v7.7h24.86V417Z" transform="translate(-381.95 -331.96)"/><path class="cls-1" d="M434.6,429.2h-6.34v6.4h6.34v-1.68H437v1.19a2.6,2.6,0,0,1-.53,1.9,3,3,0,0,1-2,.49h-6a3,3,0,0,1-2-.49,2.6,2.6,0,0,1-.53-1.9v-5.32a2.6,2.6,0,0,1,.53-1.9,3,3,0,0,1,2-.49h6a3,3,0,0,1,2,.49,2.6,2.6,0,0,1,.53,1.9v1H434.6Z" transform="translate(-381.95 -331.96)"/><path class="cls-1" d="M471.05,429.2h-6.34v6.4h6.34v-1.68h2.35v1.19a2.6,2.6,0,0,1-.53,1.9,3,3,0,0,1-2,.49h-6a3,3,0,0,1-2-.49,2.6,2.6,0,0,1-.52-1.9v-5.32a2.6,2.6,0,0,1,.52-1.9,3,3,0,0,1,2-.49h6a3,3,0,0,1,2,.49,2.6,2.6,0,0,1,.53,1.9v1h-2.35Z" transform="translate(-381.95 -331.96)"/><path class="cls-1" d="M537.49,429.2h-6.34v6.4h6.34v-1.68h2.34v1.19a2.6,2.6,0,0,1-.52,1.9,3,3,0,0,1-2,.49h-6a3,3,0,0,1-2-.49,2.6,2.6,0,0,1-.53-1.9v-5.32a2.6,2.6,0,0,1,.53-1.9,3,3,0,0,1,2-.49h6a3,3,0,0,1,2,.49,2.6,2.6,0,0,1,.52,1.9v1h-2.34Z" transform="translate(-381.95 -331.96)"/><path class="cls-1" d="M448.53,437.5V433l-5.24-5.58h3.13l3.46,3.88,3.48-3.88h2.76l-5.22,5.52v4.58Z" transform="translate(-381.95 -331.96)"/><path class="cls-1" d="M481.7,437.5V427.4H484v8.2h7.58v1.9Z" transform="translate(-381.95 -331.96)"/><path class="cls-1" d="M548.68,437.5V427.4H551v8.2h7.57v1.9Z" transform="translate(-381.95 -331.96)"/><path class="cls-1" d="M568.3,427.4v8.2H575v-8.2h2.35v7.71a2.55,2.55,0,0,1-.53,1.9,3,3,0,0,1-2,.49h-6.38a3,3,0,0,1-2-.49,2.6,2.6,0,0,1-.52-1.9V427.4Z" transform="translate(-381.95 -331.96)"/><path class="cls-1" d="M586.42,437.5V427.4h8.65c1.51,0,2.27.65,2.27,2v1.23c0,1-.58,1.56-1.74,1.7a1.81,1.81,0,0,1,1.82,1.94v1.29c0,1.32-1,2-3,2Zm7.67-8.46h-5.36v2.41h5.36q1.08,0,1.08-.72v-1C595.17,429.29,594.81,429,594.09,429Zm0,4.08h-5.36v2.56h5.36a1.74,1.74,0,0,0,.82-.14.82.82,0,0,0,.31-.76V434a.83.83,0,0,0-.31-.76A1.77,1.77,0,0,0,594.09,433.12Z" transform="translate(-381.95 -331.96)"/><path class="cls-1" d="M498.48,437.5V427.31H508.9v1.74h-8v2.27h4.7v1.74h-4.7v2.52H509v1.92Z" transform="translate(-381.95 -331.96)"/><path class="cls-1" d="M524.36,359.36a1,1,0,0,1,.1-2l.16,0c0-.38-.06-.75-.12-1.12a.82.82,0,0,1-.3.1,1,1,0,0,1-1.11-.85,1,1,0,0,1,.85-1.1h.18c-.1-.37-.22-.72-.33-1.08a.85.85,0,0,1-.28.15,1,1,0,0,1-1.24-.64,1,1,0,0,1,.64-1.23l.16,0c-.16-.34-.34-.66-.51-1l-.25.19a1,1,0,0,1-1.33-.41,1,1,0,0,1,.41-1.33l.14-.07c-.22-.29-.45-.59-.68-.87a1.37,1.37,0,0,1-.2.22,1,1,0,0,1-1.38-.17,1,1,0,0,1,.16-1.37l.11-.08c-.26-.25-.53-.5-.81-.73a1.14,1.14,0,0,1-.15.23A1,1,0,1,1,517.1,345a.17.17,0,0,1,.09-.08c-.3-.21-.62-.4-.93-.58a1.22,1.22,0,0,1-.1.24,1,1,0,1,1-1.69-1l.07-.09c-.33-.14-.68-.27-1-.4a.75.75,0,0,1,0,.26,1,1,0,0,1-1.84-.69.25.25,0,0,1,0-.09l-1.05-.21a1.06,1.06,0,0,1,0,.25,1,1,0,0,1-1.15.78,1,1,0,0,1-.78-1.14s0-.05,0-.08h-1.06a.71.71,0,0,1,0,.21,1,1,0,0,1-2,0s0,0,0-.06l-.69.12a1,1,0,0,1,.05.18,1,1,0,1,1-1.94.32s0,0,0-.06l-1,.35.08.17a1,1,0,0,1-.6,1.25,1,1,0,0,1-1.26-.6v0c-.31.16-.62.33-.91.5a1.1,1.1,0,0,1,.09.14,1,1,0,1,1-1.7,1v0c-.26.22-.54.44-.8.67l.11.1a1,1,0,1,1-1.5,1.27h0c-.23.26-.45.53-.66.79l.11.08a1,1,0,0,1,.13,1.39,1,1,0,0,1-1.38.13q-.27.44-.51.9a.55.55,0,0,1,.13.05,1,1,0,0,1-1,1.72c-.12.32-.24.64-.35,1a.27.27,0,0,1,.13,0,1,1,0,0,1-.62,1.87c-.06.33-.12.67-.17,1h.13a1,1,0,0,1-.27,1.95c0,.09,0,.18,0,.27,0,.26,0,.5,0,.75l.13,0a1,1,0,0,1,1,1,1,1,0,0,1-.94,1c.06.35.12.68.2,1l.12,0a1,1,0,0,1,1.16.76,1,1,0,0,1-.74,1.16c.12.33.24.65.38,1l.12-.07a1,1,0,0,1,.75,1.82q.25.44.54.87l.11-.09a1,1,0,0,1,1.36.3,1,1,0,0,1-.3,1.36l.69.77.1-.11a1,1,0,0,1,1.35,1.44h0c.27.23.53.44.81.65l.09-.15a1,1,0,0,1,1.38-.19,1,1,0,0,1,.2,1.36l0,0c.3.17.61.34.92.49a1.34,1.34,0,0,1,.07-.18,1,1,0,1,1,1.76.88.05.05,0,0,1,0,0l1,.31,0-.19a1,1,0,0,1,1.23-.68,1,1,0,0,1,.66,1.22s0,0,0,.06q.53.08,1.05.12a.45.45,0,0,1,0-.2,1,1,0,1,1,1.95.19s0,.05,0,.07c.37,0,.71,0,1.07-.06a.78.78,0,0,1,0-.22,1,1,0,0,1,.89-1.06,1,1,0,0,1,1.07.9s0,.06,0,.1c.36-.07.7-.17,1.05-.26a1.47,1.47,0,0,1-.1-.22,1,1,0,0,1,1.91-.51.41.41,0,0,1,0,.11c.35-.14.67-.29,1-.44a1.07,1.07,0,0,1-.15-.22,1,1,0,0,1,1.79-.85.53.53,0,0,1,0,.12c.31-.19.62-.4.91-.61a1.19,1.19,0,0,1-.19-.2,1,1,0,0,1,.23-1.37,1,1,0,0,1,1.37.22.83.83,0,0,1,.07.13c.27-.25.53-.51.77-.77a1.81,1.81,0,0,1-.23-.18,1,1,0,0,1,0-1.39,1,1,0,0,1,1.49.09c.23-.29.43-.59.64-.9a1.13,1.13,0,0,1-.28-.12,1,1,0,0,1,1.1-1.64l.12.1a10.13,10.13,0,0,0,.46-1,1,1,0,0,1-.3-.08,1,1,0,0,1,.79-1.8l.14.08c.11-.36.2-.72.28-1.08a1.77,1.77,0,0,1-.32,0,1,1,0,0,1,.46-1.92l.15.06c0-.37.06-.74.07-1.12A1.1,1.1,0,0,1,524.36,359.36ZM508,372.61a13.84,13.84,0,1,1,13.85-13.84A13.83,13.83,0,0,1,508,372.61Z" transform="translate(-381.95 -331.96)"/><path class="cls-2" d="M520.5,359.22a.76.76,0,0,1-.71-.78.74.74,0,0,1,.78-.72h.14c0-.28-.06-.57-.1-.85a.7.7,0,0,1-.23.08.76.76,0,0,1-.2-1.5h.14c-.09-.28-.17-.55-.26-.81a1.36,1.36,0,0,1-.21.1.75.75,0,1,1-.46-1.43l.13,0c-.13-.26-.26-.51-.4-.76a.79.79,0,0,1-.18.14.75.75,0,1,1-.71-1.33l.11,0c-.17-.23-.33-.45-.52-.67a1.25,1.25,0,0,1-.16.17.75.75,0,0,1-1.06-.13.76.76,0,0,1,.13-1.06l.09-.05c-.21-.2-.41-.38-.62-.56a1.88,1.88,0,0,1-.12.18.75.75,0,1,1-1.13-1l.07-.07-.72-.44a.53.53,0,0,1-.06.19.77.77,0,0,1-1,.26.75.75,0,0,1-.25-1,.18.18,0,0,1,0-.07c-.26-.11-.51-.21-.78-.3a.43.43,0,0,1,0,.19.75.75,0,1,1-1.4-.53l0-.06a7.25,7.25,0,0,0-.81-.16,1.08,1.08,0,0,1,0,.18.77.77,0,0,1-.88.61.75.75,0,0,1-.6-.87.15.15,0,0,1,0-.07h-.81a.88.88,0,0,1,0,.17.75.75,0,0,1-.75.74.74.74,0,0,1-.76-.74s0,0,0-.06l-.53.09s0,.1,0,.15a.75.75,0,0,1-.63.86.73.73,0,0,1-.85-.62v0l-.77.26.06.13a.75.75,0,0,1-1.42.51v0l-.7.39.08.1a.75.75,0,1,1-1.31.75h0a7.37,7.37,0,0,0-.61.5.6.6,0,0,1,.08.08.76.76,0,0,1-.09,1.06.75.75,0,0,1-1.06-.1h0a7,7,0,0,0-.5.61l.08.06a.77.77,0,0,1,.11,1.06.75.75,0,0,1-1.06.1c-.13.23-.27.45-.41.69l.11,0a.74.74,0,0,1,.29,1,.75.75,0,0,1-1,.29c-.1.25-.18.5-.27.75l.1,0a.75.75,0,0,1-.47,1.43,6.5,6.5,0,0,0-.12.77h.09a.76.76,0,0,1-.21,1.5v.21a5.43,5.43,0,0,0,0,.57h.09a.73.73,0,0,1,.76.73.77.77,0,0,1-.7.78,6.75,6.75,0,0,0,.14.76l.1,0a.75.75,0,0,1,.32,1.47c.09.25.18.49.28.74l.1-.05a.75.75,0,0,1,.58,1.39c.13.22.27.44.42.67a.16.16,0,0,1,.07-.07.75.75,0,1,1,.81,1.27c.17.2.36.39.53.59l.08-.09a.74.74,0,0,1,1.06,0,.77.77,0,0,1,0,1.07h0c.2.16.41.33.62.48a.41.41,0,0,1,.07-.11.75.75,0,0,1,1.2.9v0l.7.37a.75.75,0,1,1,1.4.54s0,0,0,0c.26.09.51.17.77.24,0-.05,0-.1,0-.14a.78.78,0,0,1,.94-.52.75.75,0,0,1,.52.93s0,0,0,.05a7,7,0,0,0,.8.09.43.43,0,0,1,0-.16.74.74,0,0,1,.82-.66.73.73,0,0,1,.67.82.43.43,0,0,0,0,0c.28,0,.54,0,.82,0a1,1,0,0,1,0-.17.75.75,0,1,1,1.5-.11s0,0,0,.07l.81-.2a.3.3,0,0,1-.08-.17.76.76,0,0,1,.53-.93.76.76,0,0,1,.92.54s0,.05,0,.08c.26-.1.51-.22.76-.33a.62.62,0,0,1-.11-.17.75.75,0,1,1,1.36-.64.26.26,0,0,1,0,.08l.69-.46a.75.75,0,1,1,1.08-1l0,.09c.2-.19.4-.38.6-.59l-.19-.12a.78.78,0,0,1,0-1.08.77.77,0,0,1,1.07,0l.07.08c.16-.23.33-.47.48-.7a.64.64,0,0,1-.21-.09.76.76,0,0,1-.2-1.05.74.74,0,0,1,1-.2s.06.05.1.08c.12-.25.25-.51.35-.78a.53.53,0,0,1-.23-.06.75.75,0,1,1,.6-1.37l.11.06a8.41,8.41,0,0,0,.21-.83.6.6,0,0,1-.23,0,.73.73,0,0,1-.57-.9.76.76,0,0,1,.9-.56l.13.05c0-.29,0-.57,0-.86A.88.88,0,0,1,520.5,359.22ZM508,369.91a11.14,11.14,0,1,1,11.13-11.14A11.14,11.14,0,0,1,508,369.91Z" transform="translate(-381.95 -331.96)"/><path class="cls-1" d="M513.27,357.65h-6.2v6.26h6.2v-1.65h2.3v1.18a2.54,2.54,0,0,1-.52,1.85,2.87,2.87,0,0,1-1.93.47h-5.91a2.86,2.86,0,0,1-1.92-.47,2.54,2.54,0,0,1-.52-1.85v-5.22a2.54,2.54,0,0,1,.52-1.85,2.85,2.85,0,0,1,1.92-.48h5.91a2.86,2.86,0,0,1,1.93.48,2.54,2.54,0,0,1,.52,1.85v.94h-2.3Zm-4.2,2.23h-.79v1.86h.64a2.91,2.91,0,0,0,1.93-.47,2.52,2.52,0,0,0,.52-1.86v-.63h-2.3Zm1.78-7.54a2.9,2.9,0,0,0-1.93-.48H503a2.92,2.92,0,0,0-1.93.48,2.54,2.54,0,0,0-.52,1.86v5.21a2.52,2.52,0,0,0,.52,1.86,2.93,2.93,0,0,0,1.93.47h.56v-1.86h-.71v-6.25h6.19v1h2.3v-.47A2.54,2.54,0,0,0,510.85,352.34Z" transform="translate(-381.95 -331.96)"/><path class="cls-1" d="M501.41,340.8a18.55,18.55,0,0,1,13.1,0,12.14,12.14,0,0,1,5.21-7.58,9.23,9.23,0,0,0-4.18,2.14,4.07,4.07,0,0,0-1.35-.23,4.22,4.22,0,0,0-1.51.28h.09a1.63,1.63,0,0,1,0,3.25,1.57,1.57,0,0,1-1.16-.51,1.94,1.94,0,0,1-.48.09,1.86,1.86,0,0,1,0-3.72,1.6,1.6,0,0,1,.23,0,3.67,3.67,0,0,0-2.09-.32s-.06,0-.1,0A3.6,3.6,0,0,0,508,332V332l0,0h0v0h0v0h0l0,0V332a3.6,3.6,0,0,0-1.16,2.23.45.45,0,0,0-.11,0,3.68,3.68,0,0,0-2.09.32l.24,0a1.86,1.86,0,0,1,0,3.72,1.94,1.94,0,0,1-.48-.09,1.59,1.59,0,0,1-1.17.51,1.63,1.63,0,0,1,0-3.25h.08a0,0,0,0,0,0,0,4.12,4.12,0,0,0-1.5-.28,4,4,0,0,0-1.35.23,9.31,9.31,0,0,0-4.19-2.14A12.11,12.11,0,0,1,501.41,340.8Z" transform="translate(-381.95 -331.96)"/><path class="cls-1" d="M488.79,342c-.17-.51-.39-.73-.76-.73a.53.53,0,0,0-.56.59c0,.82,2.31.88,2.31,2.57a1.53,1.53,0,0,1-1.73,1.55,1.76,1.76,0,0,1-1.77-1.52l1-.22c.12.65.5.88.8.88a.61.61,0,0,0,.64-.64c0-1-2.31-1-2.31-2.55a1.43,1.43,0,0,1,1.63-1.51,1.6,1.6,0,0,1,1.66,1.31Z" transform="translate(-381.95 -331.96)"/><path class="cls-1" d="M491.17,345.86v-5.41H494v.92h-1.8v1.24h1.37v.91H492.2V345h1.87v.91Z" transform="translate(-381.95 -331.96)"/><path class="cls-1" d="M522.08,345.86V345c2-2.06,2.34-2.45,2.34-3a.65.65,0,0,0-.67-.74.68.68,0,0,0-.73.71v.2h-.92v-.26a1.63,1.63,0,0,1,3.25.07c0,1.25-1.37,2.22-2.1,3.06h2v.85Z" transform="translate(-381.95 -331.96)"/><path class="cls-1" d="M526.5,342.25a1.71,1.71,0,1,1,3.41,0v1.81a1.71,1.71,0,1,1-3.41,0Zm.93,1.7c0,.88.25,1.13.77,1.13s.78-.25.78-1.13v-1.59c0-.87-.25-1.13-.78-1.13s-.77.26-.77,1.13Z" transform="translate(-381.95 -331.96)"/><path class="cls-3" d="M525.51,351a19,19,0,0,1,1.58,5h22.25c6.6,0,8.48-5,8.48-5Z" transform="translate(-381.95 -331.96)"/><path class="cls-2" d="M535,365.75a13.6,13.6,0,0,0,10.7-5.1h-18.4a19.32,19.32,0,0,1-1.24,5.1Z" transform="translate(-381.95 -331.96)"/><path class="cls-3" d="M490.22,351a19.4,19.4,0,0,0-1.58,5H466.4c-6.61,0-8.49-5-8.49-5Z" transform="translate(-381.95 -331.96)"/><path class="cls-2" d="M480.77,365.75a13.6,13.6,0,0,1-10.71-5.1h18.41a19.32,19.32,0,0,0,1.24,5.1Z" transform="translate(-381.95 -331.96)"/></svg>